<svg width="348" height="83" xmlns="http://www.w3.org/2000/svg">
 <!-- Created with Method Draw - http://github.com/duopixel/Method-Draw/ -->

 <g>
  <title>background</title>
  <rect x="-1" y="-1" width="350" height="85" id="canvas_background" fill="#3a3a3a"/>
  <g id="canvasGrid" display="none">
   <rect id="svg_3" width="580" height="400" x="1" y="1" stroke-width="0" fill="url(#gridpattern)"/>
  </g>
 </g>
 <g>
  <title>Layer 1</title>
  <path stroke="#619E73" fill="#619E73" stroke-width="1.5" d="m70.223647,55.850709c-5.021967,8.57072 -14.364796,14.349698 -25.104313,14.368966c-16.042494,-0.02753 -29.010601,-12.862965 -29.0412,-28.72967c0.030599,-15.874975 12.998706,-28.707648 29.0412,-28.737931c10.736737,0.019268 20.076776,5.795491 25.101533,14.366212l11.023307,6.288312l0.397865,0.225765c-3.647546,-16.656882 -18.60218,-29.139901 -36.522705,-29.145408c-20.652696,0.005508 -37.387975,16.566022 -37.390764,37.003051c0.005569,20.428758 16.740848,36.989282 37.390764,36.99478c17.923305,-0.005498 32.883509,-12.494034 36.522705,-29.153661l-0.392305,0.223011l-11.026087,6.296573zm12.002662,-14.360704l-19.893143,-11.367972l0,6.324103l-30.535275,0l0,10.079475l30.535275,0l0,6.324103l19.893143,-11.35971z" id="svg_1"/>
  <text fill="#619E73" stroke="#619E73" stroke-width="2" x="94.505412" y="68.853654" id="svg_2" font-size="76" font-family="Euphoria, sans-serif" text-anchor="start" xml:space="preserve" font-weight="bold">AC</text>
  <text fill="#619E73" stroke="#619E73" stroke-width="2" x="202.502437" y="61.503857" id="svg_18" font-size="76" font-family="'Times New Roman', Times, serif" text-anchor="start" xml:space="preserve" font-weight="bold">::</text>
  <text fill="#aaa" stroke="null" stroke-width="2" x="248.50117" y="68.503664" id="svg_19" font-size="76" font-family="Euphoria, sans-serif" text-anchor="start" xml:space="preserve" font-weight="bold">OJ</text>
 </g>
</svg>