<?xml version="1.0" standalone="no"?>
<!DOCTYPE svg PUBLIC "-//W3C//DTD SVG 20010904//EN"
 "http://www.w3.org/TR/2001/REC-SVG-20010904/DTD/svg10.dtd">
<svg version="1.0" xmlns="http://www.w3.org/2000/svg"
 width="300.000000pt" height="300.000000pt" viewBox="0 0 300.000000 300.000000"
 preserveAspectRatio="xMidYMid meet">
<metadata>
Created by potrace 1.11, written by Peter Selinger 2001-2013
</metadata>
<g transform="translate(0.000000,300.000000) scale(0.100000,-0.100000)"
fill="#000000" stroke="none">
<path d="M1280 2983 c-376 -56 -719 -254 -956 -553 -164 -207 -266 -445 -309
-720 -19 -122 -13 -369 13 -495 104 -517 456 -934 948 -1121 296 -112 683
-121 984 -22 519 170 904 603 1011 1135 35 175 33 429 -5 613 -14 68 -51 184
-83 260 -184 430 -546 746 -998 870 -162 44 -432 59 -605 33z"/>
</g>
</svg>
